<?xml version="1.0" standalone="no"?><!DOCTYPE svg PUBLIC "-//W3C//DTD SVG 1.1//EN" "http://www.w3.org/Graphics/SVG/1.1/DTD/svg11.dtd"><svg t="1548383403831" class="icon" style="" viewBox="0 0 1024 1024" version="1.1" xmlns="http://www.w3.org/2000/svg" p-id="1702" xmlns:xlink="http://www.w3.org/1999/xlink" width="200" height="200"><defs><style type="text/css"></style></defs><path d="M512 1024C229.2224 1024 0 794.7776 0 512S229.2224 0 512 0s512 229.2224 512 512-229.2224 512-512 512z m0-51.2a460.8 460.8 0 1 0 0-921.6 460.8 460.8 0 0 0 0 921.6z" p-id="1703"></path><path d="M533.2992 733.9008a41.0624 41.0624 0 0 0-30.8224 12.1856c-8.6016 7.8848-12.1856 17.92-12.1856 30.1056s3.584 22.2208 12.1856 30.8224a43.9296 43.9296 0 0 0 30.8224 12.1856 43.9296 43.9296 0 0 0 30.8224-12.1856 39.5264 39.5264 0 0 0 12.9024-30.8224 41.0624 41.0624 0 0 0-12.1856-30.1056 42.6496 42.6496 0 0 0-31.5392-12.1856zM544.0512 297.3696c-51.6096 0-91.7504 15.7696-120.4224 47.3088-28.672 30.1056-42.2912 70.2464-42.2912 120.4224h56.6272c0-35.1232 7.8848-62.3616 23.6544-82.432 17.2032-23.6544 43.7248-35.1232 79.5648-35.1232 30.1056 0 53.76 7.8848 70.2464 25.088 15.7696 15.7696 24.3712 37.9904 24.3712 66.6624 0 20.0704-7.168 38.7072-21.504 56.6272-4.3008 5.7344-12.9024 14.336-24.3712 25.8048-38.7072 34.4064-62.3616 61.6448-72.3968 83.1488-8.6016 17.92-12.9024 38.7072-12.9024 62.3616v16.4864h57.344v-16.4864c0-19.3536 4.3008-36.5568 13.6192-52.3264 7.168-12.9024 17.92-25.8048 33.6896-39.424 31.5392-27.9552 50.8928-46.592 58.0608-55.1936a135.168 135.168 0 0 0 27.2384-83.8656c0-43.008-13.6192-76.6976-40.1408-101.0688-27.9552-25.8048-64.512-37.9904-110.3872-37.9904z" p-id="1704"></path></svg>