<?xml version="1.0" standalone="no"?><!DOCTYPE svg PUBLIC "-//W3C//DTD SVG 1.1//EN" "http://www.w3.org/Graphics/SVG/1.1/DTD/svg11.dtd"><svg t="1528707486348" class="icon" style="" viewBox="0 0 1024 1024" version="1.1" xmlns="http://www.w3.org/2000/svg" p-id="9118" xmlns:xlink="http://www.w3.org/1999/xlink" width="200" height="200"><defs><style type="text/css"></style></defs><path d="M494.933 904.533L78.507 901.12V413.013h498.346c20.48 0 34.134-13.653 34.134-34.133s-13.654-34.133-34.134-34.133H78.507V204.8h174.08v34.133c0 20.48 13.653 34.134 34.133 34.134s34.133-13.654 34.133-34.134V204.8H645.12v30.72c0 20.48 13.653 34.133 34.133 34.133S713.387 256 713.387 235.52V204.8h139.946v232.107c0 20.48 13.654 34.133 34.134 34.133s34.133-13.653 34.133-34.133V204.8c0-37.547-30.72-71.68-71.68-71.68H716.8V85.333c0-20.48-13.653-34.133-34.133-34.133s-34.134 13.653-34.134 34.133v51.2h-327.68v-51.2c0-20.48-13.653-34.133-34.133-34.133s-34.133 13.653-34.133 34.133v51.2H78.507c-37.547 0-68.267 30.72-68.267 68.267v696.32c0 37.547 30.72 71.68 71.68 71.68h416.427c20.48 0 34.133-13.653 34.133-34.133s-20.48-34.134-37.547-34.134z" p-id="9119"></path><path d="M228.693 488.107h-68.266c-20.48 0-34.134 13.653-34.134 34.133s13.654 34.133 34.134 34.133h68.266c20.48 0 34.134-13.653 34.134-34.133s-13.654-34.133-34.134-34.133z m0 133.12h-68.266c-20.48 0-34.134 13.653-34.134 34.133s13.654 34.133 34.134 34.133h68.266c20.48 0 34.134-13.653 34.134-34.133s-13.654-34.133-34.134-34.133z m194.56-133.12h-68.266c-20.48 0-34.134 13.653-34.134 34.133s13.654 34.133 34.134 34.133h68.266c20.48 0 34.134-13.653 34.134-34.133s-13.654-34.133-34.134-34.133z m0 129.706h-68.266c-20.48 0-34.134 13.654-34.134 34.134s13.654 34.133 34.134 34.133h68.266c20.48 0 34.134-13.653 34.134-34.133s-13.654-34.134-34.134-34.134z m0 146.774h-68.266c-20.48 0-34.134 13.653-34.134 34.133s13.654 34.133 34.134 34.133h68.266c20.48 0 34.134-13.653 34.134-34.133s-13.654-34.133-34.134-34.133z m-194.56 0h-68.266c-20.48 0-34.134 13.653-34.134 34.133s13.654 34.133 34.134 34.133h68.266c20.48 0 34.134-13.653 34.134-34.133s-13.654-34.133-34.134-34.133z m529.067-307.2c-139.947 0-256 116.053-256 256s116.053 256 256 256 256-116.054 256-256-112.64-256-256-256z m0 443.733c-102.4 0-187.733-85.333-187.733-187.733S655.36 525.653 757.76 525.653s187.733 85.334 187.733 187.734S863.573 901.12 757.76 901.12z" p-id="9120"></path><path d="M863.573 682.667H788.48v-102.4c0-20.48-13.653-34.134-34.133-34.134s-34.134 13.654-34.134 34.134v170.666h143.36c20.48 0 34.134-13.653 34.134-34.133s-13.654-34.133-34.134-34.133z" p-id="9121"></path></svg>