<?xml version="1.0" encoding="utf-8"?>
<!-- Generator: Adobe Illustrator 16.0.0, SVG Export Plug-In . SVG Version: 6.00 Build 0)  -->
<!DOCTYPE svg PUBLIC "-//W3C//DTD SVG 1.1//EN" "http://www.w3.org/Graphics/SVG/1.1/DTD/svg11.dtd">
<svg version="1.1" id="图层_1" xmlns="http://www.w3.org/2000/svg" xmlns:xlink="http://www.w3.org/1999/xlink" x="0px" y="0px"
	 width="80px" height="80px" viewBox="0 0 80 80" enable-background="new 0 0 80 80" xml:space="preserve">
<rect x="80" fill="#FF7D12" width="80" height="80"/>
<g>
	<text transform="matrix(1 0 0 1 16 67.4238)" fill="#FFFFFF" font-family="'SourceHanSansCN-Bold-GBpc-EUC-H'" font-size="12">oristar</text>
</g>
<g>
	<g>
		<defs>
			<path id="SVGID_11_" d="M54.507,22.474l-0.012-0.019l-13.043-7.523l-0.057,0.002c-0.416-0.23-0.889-0.371-1.396-0.371
				c-0.52,0-0.999,0.146-1.422,0.386l-0.059,0.001l-13.064,7.535L25.446,22.5c-0.86,0.504-1.444,1.428-1.446,2.498l0,0v15.109l0,0
				c0,0.001,0,0.001,0,0.001c0,1.024,0.533,1.922,1.336,2.439l0.004,0.008l13.132,7.573h0.021c0.441,0.27,0.952,0.434,1.507,0.434
				c0.52,0,0.999-0.146,1.421-0.386h0.026l13.096-7.554l0.009-0.013c0.842-0.493,1.414-1.39,1.442-2.428L56,40.169v-15.17
				C56,23.91,55.394,22.972,54.507,22.474z"/>
		</defs>
		<clipPath id="SVGID_2_">
			<use xlink:href="#SVGID_11_"  overflow="visible"/>
		</clipPath>
		<g clip-path="url(#SVGID_2_)">
			
				<polygon fill="#FFFFFF" stroke="#FFFFFF" stroke-width="0.75" stroke-linecap="round" stroke-linejoin="round" stroke-miterlimit="10" points="
				25.725,32.808 29.812,29.488 30.583,24.328 27.499,26.475 			"/>
			
				<polygon fill="none" stroke="#FFFFFF" stroke-width="0.75" stroke-linecap="round" stroke-linejoin="round" stroke-miterlimit="10" points="
				32.219,27.563 29.812,29.488 30.583,24.328 32.225,25.519 			"/>
			
				<line fill="none" stroke="#FFFFFF" stroke-width="0.4" stroke-linecap="round" stroke-linejoin="round" stroke-miterlimit="10" x1="30.459" y1="25.386" x2="32.225" y2="26.514"/>
			
				<line fill="none" stroke="#FFFFFF" stroke-width="0.4" stroke-linecap="round" stroke-linejoin="round" stroke-miterlimit="10" x1="30.389" y1="26.31" x2="32.297" y2="27.326"/>
			
				<line fill="none" stroke="#FFFFFF" stroke-width="0.4" stroke-linecap="round" stroke-linejoin="round" stroke-miterlimit="10" x1="29.904" y1="26.978" x2="31.813" y2="27.994"/>
		</g>
		
			<polygon clip-path="url(#SVGID_2_)" fill="#FFFFFF" stroke="#FFFFFF" stroke-width="0.75" stroke-linecap="round" stroke-linejoin="round" stroke-miterlimit="10" points="
			45.678,41.699 49.818,45.361 51.121,44.611 45.765,27.156 43.771,29.115 		"/>
		
			<polygon clip-path="url(#SVGID_2_)" fill="none" stroke="#FFFFFF" stroke-width="0.75" stroke-linecap="round" stroke-linejoin="round" stroke-miterlimit="10" points="
			55.585,42.031 51.119,44.607 45.765,27.156 49.103,27.924 		"/>
		
			<polygon clip-path="url(#SVGID_2_)" fill="#FFFFFF" stroke="#FFFFFF" stroke-width="0.75" stroke-linecap="round" stroke-linejoin="round" stroke-miterlimit="10" points="
			24,41.791 40,51.021 40,21.283 24,34.145 		"/>
		
			<polygon clip-path="url(#SVGID_2_)" fill="none" stroke="#FFFFFF" stroke-width="0.75" stroke-linecap="round" stroke-linejoin="round" stroke-miterlimit="10" points="
			45.678,41.699 40,36.703 40,21.283 43.135,24.927 		"/>
		
			<line clip-path="url(#SVGID_2_)" fill="none" stroke="#FFFFFF" stroke-width="0.75" stroke-linecap="round" stroke-linejoin="round" stroke-miterlimit="10" x1="40" y1="23.291" x2="43.406" y2="26.715"/>
		
			<line clip-path="url(#SVGID_2_)" fill="none" stroke="#FFFFFF" stroke-width="0.75" stroke-linecap="round" stroke-linejoin="round" stroke-miterlimit="10" x1="40" y1="25.386" x2="43.723" y2="28.807"/>
		
			<line clip-path="url(#SVGID_2_)" fill="none" stroke="#FFFFFF" stroke-width="0.75" stroke-linecap="round" stroke-linejoin="round" stroke-miterlimit="10" x1="40" y1="27.486" x2="44.08" y2="31.172"/>
		
			<line clip-path="url(#SVGID_2_)" fill="none" stroke="#FFFFFF" stroke-width="0.75" stroke-linecap="round" stroke-linejoin="round" stroke-miterlimit="10" x1="40" y1="29.603" x2="44.445" y2="33.563"/>
		
			<line clip-path="url(#SVGID_2_)" fill="none" stroke="#FFFFFF" stroke-width="0.75" stroke-linecap="round" stroke-linejoin="round" stroke-miterlimit="10" x1="40" y1="31.872" x2="44.807" y2="36.066"/>
		
			<line clip-path="url(#SVGID_2_)" fill="none" stroke="#FFFFFF" stroke-width="0.75" stroke-linecap="round" stroke-linejoin="round" stroke-miterlimit="10" x1="40" y1="34.181" x2="45.256" y2="38.913"/>
		
			<line clip-path="url(#SVGID_2_)" fill="none" stroke="#FF7D12" stroke-width="0.75" stroke-linecap="round" stroke-linejoin="round" stroke-miterlimit="10" x1="40.018" y1="36.703" x2="27.841" y2="44.006"/>
		
			<line clip-path="url(#SVGID_2_)" fill="none" stroke="#FFFFFF" stroke-width="0.75" stroke-linecap="round" stroke-linejoin="round" stroke-miterlimit="10" x1="46.216" y1="28.622" x2="49.746" y2="29.328"/>
		
			<line clip-path="url(#SVGID_2_)" fill="none" stroke="#FFFFFF" stroke-width="0.75" stroke-linecap="round" stroke-linejoin="round" stroke-miterlimit="10" x1="46.689" y1="30.165" x2="50.368" y2="30.68"/>
		
			<line clip-path="url(#SVGID_2_)" fill="none" stroke="#FFFFFF" stroke-width="0.75" stroke-linecap="round" stroke-linejoin="round" stroke-miterlimit="10" x1="47.122" y1="31.583" x2="50.965" y2="31.98"/>
		
			<line clip-path="url(#SVGID_2_)" fill="none" stroke="#FFFFFF" stroke-width="0.75" stroke-linecap="round" stroke-linejoin="round" stroke-miterlimit="10" x1="47.61" y1="33.176" x2="51.645" y2="33.459"/>
		
			<line clip-path="url(#SVGID_2_)" fill="none" stroke="#FFFFFF" stroke-width="0.75" stroke-linecap="round" stroke-linejoin="round" stroke-miterlimit="10" x1="48.093" y1="34.742" x2="52.279" y2="34.843"/>
		
			<line clip-path="url(#SVGID_2_)" fill="none" stroke="#FFFFFF" stroke-width="0.75" stroke-linecap="round" stroke-linejoin="round" stroke-miterlimit="10" x1="48.613" y1="36.44" x2="52.955" y2="36.311"/>
		
			<line clip-path="url(#SVGID_2_)" fill="none" stroke="#FFFFFF" stroke-width="0.75" stroke-linecap="round" stroke-linejoin="round" stroke-miterlimit="10" x1="49.154" y1="38.2" x2="53.701" y2="37.938"/>
		
			<line clip-path="url(#SVGID_2_)" fill="none" stroke="#FFFFFF" stroke-width="0.75" stroke-linecap="round" stroke-linejoin="round" stroke-miterlimit="10" x1="49.688" y1="39.942" x2="54.442" y2="39.547"/>
		
			<line clip-path="url(#SVGID_2_)" fill="none" stroke="#FFFFFF" stroke-width="0.75" stroke-linecap="round" stroke-linejoin="round" stroke-miterlimit="10" x1="50.227" y1="41.699" x2="55.291" y2="41.394"/>
		
			<line clip-path="url(#SVGID_2_)" fill="none" stroke="#FFFFFF" stroke-width="0.75" stroke-linecap="round" stroke-linejoin="round" stroke-miterlimit="10" x1="50.786" y1="43.518" x2="53.335" y2="43.328"/>
		
			<line clip-path="url(#SVGID_2_)" fill="none" stroke="#FF7D12" stroke-width="0.75" stroke-linecap="round" stroke-linejoin="round" stroke-miterlimit="10" x1="24" y1="36.036" x2="29.904" y2="31.687"/>
		
			<line clip-path="url(#SVGID_2_)" fill="none" stroke="#FF7D12" stroke-width="0.75" stroke-linecap="round" stroke-linejoin="round" stroke-miterlimit="10" x1="24" y1="37.943" x2="29.643" y2="34.146"/>
		
			<line clip-path="url(#SVGID_2_)" fill="none" stroke="#FF7D12" stroke-width="0.75" stroke-linecap="round" stroke-linejoin="round" stroke-miterlimit="10" x1="24" y1="39.93" x2="29.411" y2="36.311"/>
		
			<line clip-path="url(#SVGID_2_)" fill="none" stroke="#FF7D12" stroke-width="0.75" stroke-linecap="round" stroke-linejoin="round" stroke-miterlimit="10" x1="24.113" y1="41.854" x2="29.176" y2="38.521"/>
		
			<line clip-path="url(#SVGID_2_)" fill="none" stroke="#FF7D12" stroke-width="0.75" stroke-linecap="round" stroke-linejoin="round" stroke-miterlimit="10" x1="25.764" y1="42.808" x2="28.936" y2="40.78"/>
		
			<line clip-path="url(#SVGID_2_)" fill="none" stroke="#FF7D12" stroke-width="0.75" stroke-linecap="round" stroke-linejoin="round" stroke-miterlimit="10" x1="29.995" y1="45.249" x2="40.016" y2="39.354"/>
		
			<line clip-path="url(#SVGID_2_)" fill="none" stroke="#FF7D12" stroke-width="0.75" stroke-linecap="round" stroke-linejoin="round" stroke-miterlimit="10" x1="32.221" y1="46.532" x2="40.018" y2="41.854"/>
		
			<line clip-path="url(#SVGID_2_)" fill="none" stroke="#FF7D12" stroke-width="0.75" stroke-linecap="round" stroke-linejoin="round" stroke-miterlimit="10" x1="34.452" y1="47.82" x2="40" y2="44.607"/>
		
			<line clip-path="url(#SVGID_2_)" fill="none" stroke="#FF7D12" stroke-width="0.75" stroke-linecap="round" stroke-linejoin="round" stroke-miterlimit="10" x1="36.527" y1="49.018" x2="40.006" y2="47.104"/>
		
			<polygon clip-path="url(#SVGID_2_)" fill="none" stroke="#FFFFFF" stroke-width="0.75" stroke-linecap="round" stroke-linejoin="round" stroke-miterlimit="10" points="
			40,51.021 49.688,45.433 40,36.703 		"/>
	</g>
	<path fill="none" stroke="#FFFFFF" stroke-miterlimit="10" d="M54.507,22.474l-0.012-0.019l-13.043-7.523l-0.057,0.002
		c-0.416-0.23-0.889-0.371-1.396-0.371c-0.52,0-0.999,0.146-1.422,0.386l-0.059,0.001l-13.064,7.535L25.446,22.5
		c-0.86,0.504-1.444,1.428-1.446,2.498l0,0v15.109l0,0c0,0.001,0,0.001,0,0.001c0,1.024,0.533,1.922,1.336,2.439l0.004,0.008
		l13.132,7.573h0.021c0.441,0.27,0.952,0.434,1.507,0.434c0.52,0,0.999-0.146,1.421-0.386h0.026l13.096-7.554l0.009-0.013
		c0.842-0.493,1.414-1.39,1.442-2.428L56,40.169v-15.17C56,23.91,55.394,22.972,54.507,22.474z"/>
</g>
</svg>
